<svg width="316.9" height="71.201" viewBox="0 0 316.9 71.201" xmlns="http://www.w3.org/2000/svg"><g id="svgGroup" stroke-linecap="round" fill-rule="evenodd" font-size="9pt" stroke="#000" stroke-width="0.25mm" fill="#000" style="stroke:#000;stroke-width:0.25mm;fill:#000"><path d="M 9 70 L 0 70 L 0 0 L 12.6 0 L 43.5 58.2 L 43.5 0 L 52.5 0 L 52.5 70 L 40.1 70 L 9 12.2 L 9 70 Z M 79.5 70 L 70.5 70 L 70.5 0 L 83.1 0 L 114 58.2 L 114 0 L 123 0 L 123 70 L 110.6 70 L 79.5 12.2 L 79.5 70 Z M 135.5 65.8 L 139.3 58.3 A 18.557 18.557 0 0 0 142.444 60.426 Q 143.998 61.27 145.85 61.95 A 24.073 24.073 0 0 0 153.461 63.387 A 27.464 27.464 0 0 0 154.3 63.4 Q 159.692 63.4 162.535 61.685 A 7.738 7.738 0 0 0 162.75 61.55 Q 165.6 59.7 165.6 56.8 A 7.123 7.123 0 0 0 165.286 54.653 A 6.212 6.212 0 0 0 164.55 53.1 A 6.384 6.384 0 0 0 163.621 52.006 Q 162.607 51.034 160.934 50.081 A 22.3 22.3 0 0 0 160.7 49.95 A 28.462 28.462 0 0 0 158.706 48.957 Q 156.59 47.995 153.601 46.946 A 103.602 103.602 0 0 0 152.6 46.6 A 46.616 46.616 0 0 1 148.202 44.857 Q 146.088 43.883 144.412 42.795 A 19.335 19.335 0 0 1 141.65 40.65 A 11.324 11.324 0 0 1 138.356 34.654 A 16.794 16.794 0 0 1 138 31.1 Q 138 25.1 143.25 20.95 Q 147.654 17.469 154.908 16.908 A 37.527 37.527 0 0 1 157.8 16.8 A 40.794 40.794 0 0 1 162.246 17.031 Q 164.554 17.284 166.57 17.815 A 25.234 25.234 0 0 1 166.7 17.85 Q 170.6 18.9 173.7 20.5 L 171.2 27.9 Q 168.5 26.3 165.05 25.3 A 25.024 25.024 0 0 0 160.567 24.453 A 31.837 31.837 0 0 0 157.4 24.3 A 20.632 20.632 0 0 0 154.463 24.495 Q 151.377 24.94 149.5 26.4 A 9.322 9.322 0 0 0 148.142 27.673 Q 147.44 28.492 147.105 29.365 A 4.529 4.529 0 0 0 146.8 31 A 4.921 4.921 0 0 0 148.295 34.552 A 7.082 7.082 0 0 0 148.9 35.1 Q 150.965 36.772 156.898 38.734 A 84.459 84.459 0 0 0 157.1 38.8 A 67.753 67.753 0 0 1 162.162 40.698 Q 168.089 43.217 170.9 46.1 Q 174.8 50.1 174.8 56.1 Q 174.8 62.848 169.549 66.855 A 16.618 16.618 0 0 1 169.15 67.15 Q 164.41 70.547 156.962 71.095 A 40.423 40.423 0 0 1 154 71.2 Q 148.1 71.2 143.35 69.7 A 30.883 30.883 0 0 1 139.51 68.215 Q 137.529 67.284 135.948 66.136 A 18.229 18.229 0 0 1 135.5 65.8 Z M 188.8 52.1 L 188.8 27.7 L 179.8 27.7 L 179.8 19.9 L 189 19.9 L 190.9 3.5 L 197.8 3.5 L 197.8 19.9 L 212.2 19.9 L 212.2 27.7 L 197.8 27.7 L 197.8 52.8 A 21.559 21.559 0 0 0 197.968 55.596 Q 198.441 59.202 200.25 60.9 Q 202.7 63.2 206.1 63.2 Q 208.6 63.2 210.85 62.4 Q 213.1 61.6 215 60.5 L 217.5 67.7 A 18.546 18.546 0 0 1 215.882 68.556 Q 215.08 68.935 214.134 69.308 A 43.365 43.365 0 0 1 212.1 70.05 Q 208.7 71.2 205 71.2 Q 197.5 71.2 193.15 66.25 A 16.116 16.116 0 0 1 189.922 60.348 Q 189.159 57.917 188.915 54.98 A 34.777 34.777 0 0 1 188.8 52.1 Z M 288.2 52.1 L 288.2 27.7 L 279.2 27.7 L 279.2 19.9 L 288.4 19.9 L 290.3 3.5 L 297.2 3.5 L 297.2 19.9 L 311.6 19.9 L 311.6 27.7 L 297.2 27.7 L 297.2 52.8 A 21.559 21.559 0 0 0 297.368 55.596 Q 297.841 59.202 299.65 60.9 Q 302.1 63.2 305.5 63.2 Q 308 63.2 310.25 62.4 Q 312.5 61.6 314.4 60.5 L 316.9 67.7 A 18.546 18.546 0 0 1 315.282 68.556 Q 314.48 68.935 313.534 69.308 A 43.365 43.365 0 0 1 311.5 70.05 Q 308.1 71.2 304.4 71.2 Q 296.9 71.2 292.55 66.25 A 16.116 16.116 0 0 1 289.322 60.348 Q 288.559 57.917 288.315 54.98 A 34.777 34.777 0 0 1 288.2 52.1 Z M 260.1 22.2 L 260.1 18 L 268.3 18 L 268.3 57.4 A 12.15 12.15 0 0 0 268.402 59.036 Q 268.734 61.47 270.15 62.35 Q 272 63.5 274.2 63.5 L 272.3 70.5 A 17.722 17.722 0 0 1 268.035 70.028 Q 262.398 68.628 260.803 63.08 A 13.59 13.59 0 0 1 260.7 62.7 A 21.307 21.307 0 0 1 257.59 66.126 A 28.498 28.498 0 0 1 254.45 68.55 Q 250.5 71.2 244.4 71.2 Q 237.9 71.2 232.6 67.9 A 22.947 22.947 0 0 1 225.187 60.373 A 27.923 27.923 0 0 1 224.15 58.55 A 27.228 27.228 0 0 1 221.52 50.608 A 36.644 36.644 0 0 1 221 44.3 A 33.142 33.142 0 0 1 221.997 36.031 A 27.968 27.968 0 0 1 224.15 30.3 Q 227.3 24.1 232.85 20.45 A 22.297 22.297 0 0 1 244.045 16.844 A 27.388 27.388 0 0 1 245.6 16.8 A 22.584 22.584 0 0 1 250.394 17.29 A 18.703 18.703 0 0 1 253.75 18.35 A 26.002 26.002 0 0 1 258.037 20.644 A 22.103 22.103 0 0 1 260.1 22.2 Z M 259.3 56.7 L 259.3 28.8 Q 256.6 26.9 253.35 25.75 Q 250.1 24.6 246.5 24.6 A 15.924 15.924 0 0 0 241.529 25.354 A 14.024 14.024 0 0 0 238.05 27.05 A 16.301 16.301 0 0 0 233.031 32.474 A 19.962 19.962 0 0 0 232.3 33.85 A 20.663 20.663 0 0 0 230.547 39.527 A 27.678 27.678 0 0 0 230.2 44 Q 230.2 49.6 232.3 53.95 A 17.602 17.602 0 0 0 235.406 58.496 A 15.697 15.697 0 0 0 238.1 60.75 Q 241.8 63.2 246.4 63.2 Q 250.2 63.2 253.6 61.35 Q 257 59.5 259.3 56.7 Z" vector-effect="non-scaling-stroke"/></g></svg>